<svg width="360" height="540" viewBox="0 0 360 540" fill="none" xmlns="http://www.w3.org/2000/svg">
<g id="undraw_Ride_a_bicycle_2yok 1">
<g id="bikeParent">
<g id="leftwheel">
<g id="leftwheel_2">
<path id="Vector" d="M243.551 298.108C240.832 285.85 235.328 274.406 227.478 264.689C224.564 261.078 221.351 257.727 217.873 254.673C204.5 242.957 187.673 236.078 170.032 235.117C152.391 234.155 134.934 239.164 120.402 249.359C105.87 259.554 95.0845 274.356 89.7388 291.444C84.393 308.531 84.7895 326.937 90.866 343.771C96.9425 360.605 108.355 374.915 123.312 384.455C138.27 393.996 155.926 398.226 173.508 396.483C191.091 394.74 207.606 387.121 220.461 374.823C233.316 362.525 241.783 346.244 244.534 328.535C245.174 324.365 245.496 320.152 245.497 315.932C245.501 309.936 244.849 303.958 243.551 298.108ZM165.465 376.771C153.106 376.758 141.051 372.883 130.938 365.672C120.826 358.46 113.148 348.264 108.947 336.468C104.747 324.673 104.228 311.85 107.462 299.745C110.696 287.64 117.525 276.839 127.021 268.811C136.517 260.783 148.219 255.918 160.535 254.877C172.852 253.836 185.186 256.67 195.859 262.993C206.533 269.316 215.029 278.822 220.191 290.218C225.354 301.613 226.932 314.346 224.713 326.684C222.17 340.748 214.85 353.461 204.024 362.613C193.199 371.764 179.555 376.774 165.465 376.771Z" fill="black"/>
<path id="Vector_2" d="M165.465 324.469C170.261 324.469 174.149 320.524 174.149 315.657C174.149 310.79 170.261 306.845 165.465 306.845C160.669 306.845 156.782 310.79 156.782 315.657C156.782 320.524 160.669 324.469 165.465 324.469Z" fill="black"/>
</g>
<circle id="Ellipse 5" cx="165.5" cy="315.5" r="67" stroke="#F5F3F3"/>
<path id="Rectangle 4" d="M153.121 254L176.121 254.049C176.121 254.049 172.116 256.54 171.108 260.538C170.099 264.536 167.5 311.531 167.5 311.531L162 311.519C162 311.519 158.099 264.511 157.108 260.508C156.116 256.506 153.121 254 153.121 254Z" fill="black"/>
<path id="Rectangle 8" d="M217.946 283L225.907 304.579C225.907 304.579 222.177 301.691 218.078 302.137C213.979 302.583 169.018 316.505 169.018 316.505L167.115 311.345C167.115 311.345 209.826 291.325 213.232 289.002C216.639 286.68 217.946 283 217.946 283Z" fill="black"/>
<path id="Rectangle 5" d="M103 312.379L108.307 290C108.307 290 109.816 294.469 113.478 296.365C117.139 298.261 162.294 311.538 162.294 311.538L161.025 316.889C161.025 316.889 114.37 309.937 110.248 309.987C106.125 310.037 103 312.379 103 312.379Z" fill="black"/>
<path id="Rectangle 6" d="M137.142 372.492L119 358.354C119 358.354 123.692 358.841 126.939 356.301C130.187 353.76 161.049 318.225 161.049 318.225L165.387 321.606C165.387 321.606 139.652 361.137 137.982 364.906C136.312 368.676 137.142 372.492 137.142 372.492Z" fill="black"/>
<path id="Rectangle 7" d="M216.006 353.098L199.166 368.765C199.166 368.765 200.392 364.21 198.4 360.6C196.407 356.99 166.223 320.877 166.223 320.877L170.25 317.13C170.25 317.13 205.193 348.816 208.649 351.064C212.106 353.311 216.006 353.098 216.006 353.098Z" fill="black"/>
<circle id="Ellipse 6" cx="165.5" cy="315.5" r="3.5" fill="#FFF3F3"/>
</g>
<g id="body">
<path id="Vector_3" d="M233.097 188.81L225.206 192.386L276.572 305.719L284.463 302.143L233.097 188.81Z" fill="#0B0B0C"/>
<path id="Vector_4" d="M242.639 184.135C240.648 184.041 238.666 183.878 236.705 183.648C229.011 182.748 209.613 180.862 204.395 184.064C197.847 188.062 200.03 195.062 217.498 196.061C234.966 197.061 264.991 194.396 271 190.394C271 190.377 260.134 184.955 242.639 184.135Z" fill="#272727"/>
<path id="Vector_5" d="M299.56 294.086L406.443 187.273L412.408 196.079L310.407 303.992L299.56 294.086Z" fill="#1355FF"/>
<path id="Vector_6" d="M144.029 308.038C156.551 300.658 280.259 281.999 290.252 292.886C300.245 303.774 311.053 318.487 282.772 325.957C254.49 333.426 171.483 328.194 150.103 330.673C128.723 333.152 131.508 315.418 144.029 308.038Z" fill="#1355FF"/>
<path id="Vector_7" d="M297.933 325.469C307.522 325.469 315.294 317.581 315.294 307.851C315.294 298.121 307.522 290.234 297.933 290.234C288.345 290.234 280.573 298.121 280.573 307.851C280.573 317.581 288.345 325.469 297.933 325.469Z" fill="black"/>
<path id="Vector_8" d="M293.298 306.528L293.293 306.532C291.254 308.079 290.837 311.011 292.362 313.08L306.141 331.777C307.665 333.846 310.554 334.269 312.593 332.722L312.598 332.718C314.637 331.171 315.054 328.239 313.529 326.17L299.75 307.473C298.226 305.404 295.337 304.981 293.298 306.528Z" fill="#1355FF"/>
<path id="Vector_9" d="M320.405 326.996H279.732V340.066H320.405V326.996Z" fill="#0F0E0E"/>
</g>
</g>
</g>
</svg>
